<?xml version="1.0" encoding="UTF-8"?>
<!DOCTYPE svg PUBLIC "-//W3C//DTD SVG 1.1//EN" "http://www.w3.org/Graphics/SVG/1.1/DTD/svg11.dtd">
<!-- Creator: CorelDRAW X6 -->
<svg xmlns="http://www.w3.org/2000/svg" xml:space="preserve" width="297mm" height="210mm" version="1.1" style="shape-rendering:geometricPrecision; text-rendering:geometricPrecision; image-rendering:optimizeQuality; fill-rule:evenodd; clip-rule:evenodd"
viewBox="0 0 29700 21000"
 xmlns:xlink="http://www.w3.org/1999/xlink">
 <defs>
  <style type="text/css">
   <![CDATA[
    .fil2 {fill:#15519D}
    .fil0 {fill:#8A8C8F}
    .fil1 {fill:#15519D;fill-rule:nonzero}
    .fil3 {fill:#FEFEFE;fill-rule:nonzero}
   ]]>
  </style>
 </defs>
 <g id="Layer_x0020_1">
  <metadata id="CorelCorpID_0Corel-Layer"/>
  <rect class="fil0" x="4327" y="10629" width="20407" height="5421"/>
  <polygon class="fil1" points="4327,5066 4327,10083 5775,10083 5775,7904 5775,7904 7445,10083 9129,10083 7029,7417 9022,5066 7402,5066 5775,7033 5775,7033 5775,5066 "/>
  <path class="fil1" d="M10562 7575c0,-1484 1801,-1601 2713,-648l0 -1391c-965,-730 -2549,-604 -3422,218 -996,938 -996,2702 0,3640 889,838 2439,937 3422,218l0 -1391c-905,947 -2713,833 -2713,-648z"/>
  <path class="fil2" d="M14061 5058l0 5025c605,0 1219,9 1825,0 1086,-8 2269,-478 2474,-1634l-597 0 2 -1749 598 0c-272,-1190 -1383,-1633 -2524,-1642l-1777 0zm1363 3804l0 -2583c611,0 1235,-30 1529,642 151,344 151,956 0,1299 -294,670 -918,642 -1529,642z"/>
  <polygon class="fil2" points="24736,10088 24736,5063 23373,5063 23373,6902 23186,6903 23186,8254 23373,8255 23373,10088 "/>
  <polygon class="fil0" points="19797,5061 21152,5061 21152,6898 22989,6898 22989,8253 21152,8253 21152,10089 19797,10089 19797,8253 17960,8253 17960,6898 19797,6898 "/>
  <path class="fil3" d="M5041 12914l0 -1215 161 0 0 602 603 -602 218 0 -510 493 532 722 -212 0 -432 -613 -199 192 0 421 -161 0zm1243 -591c0,-201 54,-359 163,-473 108,-114 248,-171 419,-171 112,0 213,27 303,80 90,53 159,128 206,224 47,96 71,204 71,325 0,123 -25,233 -75,330 -50,97 -120,171 -211,221 -91,50 -190,75 -295,75 -115,0 -217,-28 -307,-83 -90,-55 -158,-130 -205,-226 -46,-95 -70,-196 -70,-303zm166 3c0,146 39,261 118,345 79,84 177,126 296,126 121,0 220,-42 299,-127 78,-85 117,-205 117,-361 0,-99 -17,-185 -50,-258 -33,-74 -82,-131 -146,-171 -64,-40 -137,-61 -217,-61 -114,0 -212,39 -294,117 -82,78 -123,208 -123,391zm1384 588l0 -1215 161 0 0 1215 -161 0zm907 0l0 -1072 -400 0 0 -143 962 0 0 143 -400 0 0 1072 -161 0zm622 0l466 -1215 177 0 495 1215 -183 0 -141 -368 -512 0 -132 368 -171 0zm349 -499l414 0 -127 -337c-38,-102 -67,-187 -87,-254 -17,79 -39,157 -67,234l-133 357zm2689 73l161 41c-34,132 -94,232 -182,302 -87,69 -194,104 -321,104 -131,0 -237,-27 -319,-80 -82,-53 -144,-130 -187,-231 -43,-101 -64,-210 -64,-325 0,-126 24,-237 72,-331 48,-94 117,-166 206,-215 89,-49 187,-73 294,-73 122,0 224,31 306,93 83,62 141,149 173,261l-158 37c-28,-88 -69,-153 -122,-193 -53,-40 -121,-61 -202,-61 -93,0 -171,22 -234,67 -62,45 -107,105 -132,180 -25,76 -38,153 -38,233 0,103 15,193 45,270 30,77 77,135 140,173 63,38 132,57 206,57 90,0 166,-26 228,-78 62,-52 104,-129 126,-231zm517 426l0 -1215 877 0 0 143 -716 0 0 373 670 0 0 143 -670 0 0 414 745 0 0 143 -906 0zm1280 0l0 -1215 165 0 637 953 0 -953 154 0 0 1215 -165 0 -637 -953 0 953 -154 0zm1690 0l0 -1072 -400 0 0 -143 962 0 0 143 -400 0 0 1072 -161 0zm885 0l0 -1215 538 0c108,0 191,11 247,33 56,22 101,60 135,115 34,55 50,116 50,183 0,86 -28,159 -84,218 -56,59 -142,96 -258,113 43,20 75,41 97,61 47,43 91,97 133,162l210 331 -201 0 -161 -253c-47,-73 -85,-129 -116,-168 -31,-39 -58,-66 -82,-81 -24,-15 -48,-26 -73,-32 -18,-4 -48,-6 -89,-6l-186 0 0 540 -161 0zm161 -679l345 0c74,0 131,-8 172,-23 41,-15 73,-39 94,-73 21,-33 32,-70 32,-109 0,-57 -21,-105 -62,-142 -42,-37 -107,-55 -197,-55l-384 0 0 402zm1218 679l0 -1215 877 0 0 143 -716 0 0 373 670 0 0 143 -670 0 0 414 745 0 0 143 -906 0zm2139 0l0 -1215 819 0 0 143 -658 0 0 378 570 0 0 143 -570 0 0 551 -161 0zm1133 -591c0,-201 54,-359 163,-473 108,-114 248,-171 419,-171 112,0 213,27 303,80 90,53 159,128 206,224 47,96 71,204 71,325 0,123 -25,233 -75,330 -50,97 -120,171 -211,221 -91,50 -190,75 -295,75 -115,0 -217,-28 -307,-83 -90,-55 -158,-130 -205,-226 -46,-95 -70,-196 -70,-303zm166 3c0,146 39,261 118,345 79,84 177,126 296,126 121,0 220,-42 299,-127 78,-85 117,-205 117,-361 0,-99 -17,-185 -50,-258 -33,-74 -82,-131 -146,-171 -64,-40 -137,-61 -217,-61 -114,0 -212,39 -294,117 -82,78 -123,208 -123,391zm1360 588l0 -1215 538 0c108,0 191,11 247,33 56,22 101,60 135,115 34,55 50,116 50,183 0,86 -28,159 -84,218 -56,59 -142,96 -258,113 43,20 75,41 97,61 47,43 91,97 133,162l210 331 -201 0 -161 -253c-47,-73 -85,-129 -116,-168 -31,-39 -58,-66 -82,-81 -24,-15 -48,-26 -73,-32 -18,-4 -48,-6 -89,-6l-186 0 0 540 -161 0zm161 -679l345 0c74,0 131,-8 172,-23 41,-15 73,-39 94,-73 21,-33 32,-70 32,-109 0,-57 -21,-105 -62,-142 -42,-37 -107,-55 -197,-55l-384 0 0 402z"/>
  <path class="fil3" d="M5079 13509l534 0c121,0 212,9 276,28 85,25 158,70 218,134 61,64 107,142 139,235 31,93 47,207 47,343 0,120 -15,222 -45,309 -36,106 -88,191 -155,256 -51,50 -119,88 -205,116 -65,21 -151,31 -259,31l-550 0 0 -1451zm294 245l0 961 218 0c81,0 140,-5 176,-14 48,-12 87,-32 118,-60 31,-28 57,-75 76,-140 20,-65 30,-154 30,-266 0,-112 -10,-198 -30,-258 -20,-60 -47,-107 -83,-141 -35,-33 -80,-56 -135,-68 -41,-9 -121,-14 -240,-14l-131 0zm1344 1206l0 -1451 294 0 0 1451 -294 0zm1432 -533l0 -245 630 0 0 579c-61,60 -150,112 -267,158 -116,45 -234,68 -354,68 -152,0 -284,-32 -397,-96 -112,-64 -197,-155 -254,-274 -57,-119 -85,-248 -85,-387 0,-151 32,-286 95,-404 64,-118 156,-208 278,-271 93,-48 209,-72 347,-72 180,0 321,38 422,114 101,76 166,180 195,314l-292 55c-20,-71 -59,-128 -115,-169 -56,-41 -126,-62 -211,-62 -128,0 -229,41 -305,122 -75,81 -113,202 -113,362 0,173 38,302 115,388 77,86 177,129 301,129 61,0 123,-12 184,-36 62,-24 115,-53 159,-88l0 -184 -334 0zm1075 533l0 -1451 294 0 0 1451 -294 0zm1084 0l0 -1206 -430 0 0 -245 1151 0 0 245 -428 0 0 1206 -294 0zm2253 0l-317 0 -125 -330 -582 0 -121 330 -311 0 563 -1451 310 0 581 1451zm-537 -576l-202 -537 -196 537 398 0zm886 576l0 -1439 294 0 0 1194 728 0 0 245 -1022 0zm2391 0l0 -1451 294 0 0 572 572 0 0 -572 294 0 0 1451 -294 0 0 -634 -572 0 0 634 -294 0zm1648 0l0 -1451 1074 0 0 245 -780 0 0 322 726 0 0 245 -726 0 0 393 809 0 0 245 -1103 0zm2843 0l-317 0 -125 -330 -582 0 -121 330 -311 0 563 -1451 310 0 581 1451zm-537 -576l-202 -537 -196 537 398 0zm886 576l0 -1439 294 0 0 1194 728 0 0 245 -1022 0zm1590 0l0 -1206 -430 0 0 -245 1151 0 0 245 -428 0 0 1206 -294 0zm1096 0l0 -1451 294 0 0 572 572 0 0 -572 294 0 0 1451 -294 0 0 -634 -572 0 0 634 -294 0z"/>
 </g>
</svg>
